<svg xmlns="http://www.w3.org/2000/svg" xmlns:xlink="http://www.w3.org/1999/xlink" viewBox="0 0 387.739 312.761">
  <defs>
    <style>
      .cls-1, .cls-10 {
        fill: #FF7010;
      }

      .cls-1, .cls-17, .cls-3, .cls-4, .cls-7 {
        opacity: 0.1;
      }

      .cls-2 {
        fill: #a8a8a8;
      }

      .cls-11, .cls-3 {
        fill: #fff;
      }

      .cls-5 {
        fill: #464353;
      }

      .cls-6 {
        fill: url(#linear-gradient);
      }

      .cls-8 {
        opacity: 0.06;
      }

      .cls-9 {
        fill: #fbbebe;
      }

      .cls-12 {
        fill: #fed253;
      }

      .cls-13 {
        fill: url(#linear-gradient-2);
      }

      .cls-14 {
        fill: #d6d8e1;
      }

      .cls-15 {
        fill: #f86d70;
      }

      .cls-16 {
        fill: #444176;
      }

      .cls-17 {
        fill: none;
        stroke: #000;
        stroke-miterlimit: 10;
      }

      .cls-18 {
        opacity: 0.05;
      }

      .cls-19 {
        opacity: 0.2;
      }
    </style>
    <linearGradient id="linear-gradient" x1="0.265" y1="0.397" x2="1.264" y2="0.397" gradientUnits="objectBoundingBox">
      <stop offset="0" stop-color="gray" stop-opacity="0.251"/>
      <stop offset="0.54" stop-color="gray" stop-opacity="0.122"/>
      <stop offset="1" stop-color="gray" stop-opacity="0.102"/>
    </linearGradient>
    <linearGradient id="linear-gradient-2" x1="8.786" y1="1.329" x2="9.786" y2="1.329" xlink:href="#linear-gradient"/>
  </defs>
  <g id="Group_4" data-name="Group 4" transform="translate(-766 -278.839)">
    <ellipse id="Ellipse_1" data-name="Ellipse 1" class="cls-1" cx="175.238" cy="156.38" rx="175.238" ry="156.38" transform="translate(790.229 278.839)"/>
    <ellipse id="Ellipse_2" data-name="Ellipse 2" class="cls-1" cx="64.611" cy="10.03" rx="64.611" ry="10.03" transform="translate(766 505.202)"/>
    <ellipse id="Ellipse_3" data-name="Ellipse 3" class="cls-1" cx="25.131" cy="5.184" rx="25.131" ry="5.184" transform="translate(836.546 562.563)"/>
    <ellipse id="Ellipse_4" data-name="Ellipse 4" class="cls-1" cx="25.131" cy="5.184" rx="25.131" ry="5.184" transform="translate(1008.252 542.616)"/>
    <ellipse id="Ellipse_5" data-name="Ellipse 5" class="cls-1" cx="40.87" cy="6.912" rx="40.87" ry="6.912" transform="translate(907.242 534.803)"/>
    <ellipse id="Ellipse_6" data-name="Ellipse 6" class="cls-1" cx="85.233" cy="13.335" rx="85.233" ry="13.335" transform="translate(983.272 494.083)"/>
    <path id="Path_2" data-name="Path 2" class="cls-2" d="M42.638,482.908a23.712,23.712,0,0,0,1.24,23.816,5.531,5.531,0,0,0,1.991,2.141c2.667,1.052,7.964,3.606,7.964,3.606L66.6,507.438s2.066-10.969,4.019-20.4h0c1.352-6.423,2.63-12.133,3.155-13.11,1.315-2.442,0-29.263,0-29.263s-12.772-.864-16.265,8.978l-1.54,3.005Z" transform="translate(741.018 1.22)"/>
    <path id="Path_3" data-name="Path 3" class="cls-3" d="M84.907,485.938c7.776,8.9,11.044,1.2,11.044,1.2h0c1.352-6.423,2.63-12.133,3.155-13.11,1.315-2.442,0-29.263,0-29.263s-12.772-.864-16.265,8.978l-1.54,3.005C80.286,464.639,79.31,479.515,84.907,485.938Z" transform="translate(715.728 1.158)"/>
    <path id="Path_4" data-name="Path 4" class="cls-2" d="M96.7,460.21l45.077-5.221,8.039-52.928-6.085-13.749a54.781,54.781,0,0,0-10.518-15.852c-3.043-3.231-6.762-6.348-10.668-7.888a13.757,13.757,0,0,0-1.615-.563,4.22,4.22,0,0,0-3.756.676c-5.56,3.944-7.55,20.7-8.189,28.774a87.922,87.922,0,0,1-1.352,9.879Z" transform="translate(705.625 51.679)"/>
    <path id="Path_5" data-name="Path 5" class="cls-3" d="M160.741,401.5l-9.391,23.1c4.921-3.606,12.208-23.215,12.208-23.215l6.536,22.351-5.221-23.553a75.837,75.837,0,0,0,.676-15.439c-.413-5.9-5.973-15.4-8.978-20.172a13.762,13.762,0,0,0-1.615-.563,4.22,4.22,0,0,0-3.756.676c2.367,4.733,8.264,16.641,10.1,20.172C163.559,389.288,160.741,401.5,160.741,401.5Z" transform="translate(671.597 51.679)"/>
    <path id="Path_6" data-name="Path 6" class="cls-2" d="M197,522.532h24.454a7.423,7.423,0,0,0,7.438-7.4v-.376c-.526-10.48-1.916-29.187-5.184-41.058-1.766-6.386-3.794-9.767-5.672-11.42a5.291,5.291,0,0,0-3.231-1.5,4.3,4.3,0,0,0-2.629.639c-4.583,4.32-9.879,27.234-9.879,27.234Z" transform="translate(643.002 -8.841)"/>
    <path id="Path_7" data-name="Path 7" class="cls-3" d="M226.386,555.225a12,12,0,0,1,0,9.128l-5.447,2.7s-14.65-6.2-12.885-18.932c0,0,.488-2.63,5.522-2.442A14.318,14.318,0,0,1,226.386,555.225Z" transform="translate(636.192 -61.856)"/>
    <path id="Path_8" data-name="Path 8" class="cls-3" d="M230.112,468.7c-.188-4.47,2.254-6.01,4.245-6.5a5.291,5.291,0,0,0-3.231-1.5,8.657,8.657,0,0,0-2.817,4.508L223.2,490.113S230.412,476.214,230.112,468.7Z" transform="translate(626.644 -8.802)"/>
    <path id="Path_9" data-name="Path 9" class="cls-2" d="M115.529,534.5l12.1,16.566,2.1,13.673-7.776,3.832-11.232,2.479a12.158,12.158,0,0,1-3.306.225l-30.615-2.7,4.17-9.654,14.387-20.21Z" transform="translate(718.049 -54.879)"/>
    <path id="Path_10" data-name="Path 10" class="cls-3" d="M117.764,519.29s8.264.563,5.146,14.763S87.9,549.379,87.9,549.379s6.8-12.021,17.2-20.623c1.165-.977,2.291-1.953,3.381-3.043C110.889,523.309,115.472,519.1,117.764,519.29Z" transform="translate(711.119 -45.379)"/>
    <path id="Path_11" data-name="Path 11" class="cls-4" d="M187.2,547.8s11.194,10.18,10.142,25.882" transform="translate(649.12 -63.183)"/>
    <path id="Path_12" data-name="Path 12" class="cls-4" d="M215.572,462.4s-11.758,15.627-13.072,39.668" transform="translate(639.568 -9.863)"/>
    <path id="Path_13" data-name="Path 13" class="cls-4" d="M115.827,444.8s5.672,25.844-8.527,45.3" transform="translate(699.007 1.125)"/>
    <path id="Path_14" data-name="Path 14" class="cls-5" d="M399.961,593.389h61.267a3.437,3.437,0,0,0,3.005-5.071l-30.615-56.91a3.448,3.448,0,0,0-4.658-1.39,3.11,3.11,0,0,0-1.39,1.39l-30.652,56.91a3.457,3.457,0,0,0,1.39,4.658A3.711,3.711,0,0,0,399.961,593.389Zm34.559-10.405h-7.813v-7.813h7.813Zm0-13h-7.813V554.4h7.813Z" transform="translate(518.437 -51.825)"/>
    <path id="Path_15" data-name="Path 15" class="cls-4" d="M399.961,593.389h61.267a3.437,3.437,0,0,0,3.005-5.071l-30.615-56.91a3.448,3.448,0,0,0-4.658-1.39,3.11,3.11,0,0,0-1.39,1.39l-30.652,56.91a3.457,3.457,0,0,0,1.39,4.658A3.711,3.711,0,0,0,399.961,593.389Zm34.559-10.405h-7.813v-7.813h7.813Zm0-13h-7.813V554.4h7.813Z" transform="translate(518.437 -51.825)"/>
    <path id="Path_16" data-name="Path 16" class="cls-5" d="M399.961,598.389h61.267a3.437,3.437,0,0,0,3.005-5.071l-30.615-56.91a3.448,3.448,0,0,0-4.658-1.39,3.11,3.11,0,0,0-1.39,1.39l-30.652,56.91a3.457,3.457,0,0,0,1.39,4.658A3.711,3.711,0,0,0,399.961,598.389Zm34.559-10.405h-7.813v-7.813h7.813Zm0-13h-7.813V559.4h7.813Z" transform="translate(518.437 -54.947)"/>
    <path id="Path_17" data-name="Path 17" class="cls-6" d="M120.629,356.637a3.657,3.657,0,0,0-.864-.413c-1.014-.376-2.066-.488-3.08-.826a4.888,4.888,0,0,1-1.54-.9l-.225-.225c.376-.225.714-.488,1.089-.676a13.056,13.056,0,0,0-4.545-4.508c.6-.9,1.953-.826,2.78-1.54a2.515,2.515,0,0,0,.751-1.465,10.127,10.127,0,0,0-.451-4.47,52.809,52.809,0,0,0-2.592-8.377,27.134,27.134,0,0,1-1.39-3.418c-.977-3.231-.3-6.762-1.014-10.067a7.222,7.222,0,0,1-.338-3.193c.413-1.615,2.216-2.592,2.63-4.207,1.427-5.822,1.69-11.833,2.517-17.73a20.651,20.651,0,0,0,.3-3.418c0-1.2-.225-2.4-.3-3.569-.225-3.343.451-6.724.714-10.067a11,11,0,0,1,1.352,3.381,14.184,14.184,0,0,1,.075,3.343,21.072,21.072,0,0,1-.225,2.216c-.188.864-.526,1.69-.714,2.592a7.936,7.936,0,0,0,.376,5.184c.526,1.127,1.653,2.179,2.817,1.841a3.027,3.027,0,0,0,1.653-1.8,10.823,10.823,0,0,0,.977-7.7c-.488-1.69-1.578-3.231-1.69-5a12.9,12.9,0,0,1,.15-2.1c.451-4.094-.563-8.189-.751-12.284a28.772,28.772,0,0,0-.188-3.569c-.038-.15-.075-.263-.113-.413a1.835,1.835,0,0,1,.263.113,2.568,2.568,0,0,0-.038-2.1,2.845,2.845,0,0,1-.338-.676,10.542,10.542,0,0,0-.3-1.164,4.895,4.895,0,0,0-.376-.563,4.3,4.3,0,0,1-.526-2.479c-.075-4.433-.188-8.9-.376-13.335a22.372,22.372,0,0,0-1.014-6.686,10.162,10.162,0,0,0-3.531-4.7,8.988,8.988,0,0,0-.789-.488,2.479,2.479,0,0,0,.225-1.014v-.338l-.038-.188h0a7.964,7.964,0,0,0-.751-2.254,6.3,6.3,0,0,1-.714-2.479,1.829,1.829,0,0,1,.038-.451h0c.113-1.089.676-2.1.9-3.193a4.616,4.616,0,0,0,.075-1.014v-.376h0a10.43,10.43,0,0,0-1.2-3.794c-.188-.376-.376-.751-.6-1.127-.113-.714-.188-1.39-.3-2.1a11.376,11.376,0,0,0-.225-1.2,3.519,3.519,0,0,0-.15-.6c.563-.563.225-1.352-.113-2.1-.714-1.427-.563-3.08-.864-4.658a12.793,12.793,0,0,0-1.089-3.118,5.458,5.458,0,0,0-2.742-3.08,5.751,5.751,0,0,0-1.54-.714c-.338-.075-.676-.075-1.014-.15a2.169,2.169,0,0,1-.639-.225,4.161,4.161,0,0,0-1.352-.488,3.164,3.164,0,0,0-1.315.263,4.492,4.492,0,0,1-1.39.376h-.526a.985.985,0,0,0-.714.188,2.267,2.267,0,0,0-.3.3,2.915,2.915,0,0,1-.9.6,8.962,8.962,0,0,0-4.4,7.626,3.479,3.479,0,0,1-.113,1.24,9.609,9.609,0,0,0-.413.9,2.2,2.2,0,0,0-.038.864c.038.451.075.864.113,1.315h0a3.53,3.53,0,0,0-.563,1.2h0c0,.075-.038.15-.038.225v.038h0a6.858,6.858,0,0,0,.563,2.254,8.079,8.079,0,0,1-.113,4.433,17.585,17.585,0,0,0-.751,3.005h0v.075a3.391,3.391,0,0,0,.188,1.5c.113.338.3.676.413,1.014a4.085,4.085,0,0,1-.939,3.569h0a2.412,2.412,0,0,1-.376.488h0l.789.563c-.225.113-.451.263-.676.376a7,7,0,0,0-2.554.939,9.489,9.489,0,0,0-2.066,1.39,8.563,8.563,0,0,0-1.615,2.254,26.183,26.183,0,0,0-1.39,2.93,9.656,9.656,0,0,0-.714,2.517c-.338.676-.6,1.427-.9,2.1l-.451,1.014L65.56,210.4l-1.991.826.15.376-.413.188.563,1.39a1,1,0,0,0-.225.188l-.113.075-.225.15-.113.075-.225.188-.075.075-.263.225h0c-.3.263-.563.526-.826.789l-.676.714-.15.15-.225.225-.113.15-.338.338-.038.038-.188.188-.113.113-.15.15-.15.15-.263.225-.075.075-.338.263a12.844,12.844,0,0,1-1.5.977c-2.066,1.052-4.245,1.953-6.236,3.08a17.575,17.575,0,0,0-3.08,2.179c-1.315,1.164-2.442,2.63-3.982,3.493l-.15.075c-2.7,1.39-5.935.563-9.015.488-.451,0-.9,0-1.352.038a17.084,17.084,0,0,0-7.025,2.442c-1.578.864-3.08,1.878-4.62,2.742q-1.465.845-2.93,1.8a67.592,67.592,0,0,1-7.588,4.433,16.4,16.4,0,0,1-7.513,1.69H3.8a5.093,5.093,0,0,1-.751-.075c-.263,1.953,1.352,3.569,2.367,5.3a5.5,5.5,0,0,1,.9,2.517,4.616,4.616,0,0,1-.075,1.014c-.225,1.2-.789,2.4-.639,3.644a4.363,4.363,0,0,0,.789,1.991c.676.939,1.578,1.8,2.216,2.817a15.584,15.584,0,0,1,1.578,5.109,10.7,10.7,0,0,0,1.24,3.531,15.668,15.668,0,0,0,3.231,3.268c.225.188.413.376.639.563.15.15.3.263.451.413,1.352,1.39,2.367,3.531,1.54,5.3-.038.075-.075.113-.075.188l.225.113c1.052.526,2.367-.3,3.231-1.164.413-.413.826-.864,1.2-1.315,1.052-1.164,2.028-2.442,3.005-3.644.263-.338.526-.639.826-.977a13.774,13.774,0,0,1,3.719-3.005,15.427,15.427,0,0,1,2.291-.939c1.164-.376,2.367-.639,3.531-1.014a29.779,29.779,0,0,0,4.658-1.953,73.562,73.562,0,0,0,7.513-4.658l.376-.225a14.827,14.827,0,0,0,2.254-1.8c.113-.15.225-.263.338-.413.6-.751.977-1.653,1.5-2.442a7.726,7.726,0,0,1,2.1-2.028c2.329-1.54,5.409-2.141,8.151-3.005h.038a31.575,31.575,0,0,0,12.847-7.626l2.066,5.034c-.225.6-.413,1.2-.6,1.8a14.46,14.46,0,0,1-1.728,4.32,2.965,2.965,0,0,0-.639,1.165,4.078,4.078,0,0,1-.15.939c-.113.263-.376.413-.488.676-.15.376.038.864-.15,1.2a1.781,1.781,0,0,1-.376.376,2.568,2.568,0,0,0-.676,1.916,6.338,6.338,0,0,1-.188,2.066c.15-.075.3-.188.488-.263a1.278,1.278,0,0,0-.038.376,3.394,3.394,0,0,0,.15,1.052,9.1,9.1,0,0,0,1.089,2.179,13.464,13.464,0,0,0,1.164,1.69,15.393,15.393,0,0,0,2.479,2.216l3.794,2.93-.376,1.578a44.07,44.07,0,0,0-1.69,10.1,41.95,41.95,0,0,0,.3,4.846l.338,3.306c.263,2.667.526,5.3.826,7.964a20.008,20.008,0,0,0,.977,4.958c.9,2.4-.075,5.146.3,7.663.3,1.991.9,4.057.3,5.973-.225.751-.676,1.465-.977,2.216a16.429,16.429,0,0,0-.9,5.9,24.571,24.571,0,0,0,.188,5.259c.338,1.8,1.052,3.569.9,5.372-.188,2.592-2.1,4.808-2.329,7.4-.188,2.066.714,4.057,1.69,5.9.714,1.352-.3,3.08-.676,4.583-.751,2.93.488,5.935,2.028,8.527a.453.453,0,0,0,.188.188c.188.075.338-.113.451-.263a1.9,1.9,0,0,1,.225-.263c0,.113.038.225.038.338v.751a7.164,7.164,0,0,0,.526,2.78,1.942,1.942,0,0,0,.225.488,2.018,2.018,0,0,0,.376.6,2.471,2.471,0,0,0,1.5.639,18.032,18.032,0,0,0,3.756-.225c1.315-.113,2.63-.075,3.982-.075a.452.452,0,0,0,.3-.075.673.673,0,0,0,.188-.263,3.229,3.229,0,0,0,.075-1.465,5.885,5.885,0,0,0-.3-1.165c-.188-.639-.338-1.24-.488-1.878-.038-.113-.038-.225-.075-.338l.075.038c.826-1.8,1.615-3.644,2.442-5.447a5.025,5.025,0,0,0,.639-2.892,9.22,9.22,0,0,0-.9-1.953,11.283,11.283,0,0,1-.789-5l-.038-9.654a21.162,21.162,0,0,0,3.756-8.189A26.246,26.246,0,0,1,98.5,341.31a11.222,11.222,0,0,0-.376,1.953c-.15,2.667,1.953,4.959,2.479,7.588a1.626,1.626,0,0,1,.038.6,2.4,2.4,0,0,1-.3.714c-1.014,1.841-.9,4.057-.751,6.123l.451.075a1.3,1.3,0,0,0,.451.451h0a1.771,1.771,0,0,0,.563.225,21.838,21.838,0,0,0,2.179.338c1.052.113,2.1.225,3.193.263.413.038.826.038,1.277.075a13.927,13.927,0,0,1,1.766.113,10.817,10.817,0,0,1,1.878.563c2.742.9,5.822,1.427,8.452.3a3.731,3.731,0,0,0,1.54-1.089,1.793,1.793,0,0,0-.113-2.554,1.666,1.666,0,0,0-.6-.413ZM84.3,249.541c.413.789.789,1.578,1.127,2.4a8.347,8.347,0,0,1,.639,5.034c-.113.488-.9.864-.9,1.352-.038.038-.038.075-.075.113l-2.442-6.01A24.84,24.84,0,0,1,84.3,249.541Zm-2.7,12.772a10.663,10.663,0,0,1-1.315-2.291,1.124,1.124,0,0,0-.15-.3,1.349,1.349,0,0,0,.376-.263c.376-.488.188-1.164.225-1.766a3.725,3.725,0,0,1,.6-1.5l2.291,5.635c-.225.6-.451,1.24-.639,1.841A15.667,15.667,0,0,1,81.6,262.313Z" transform="translate(764.112 156.153)"/>
    <path id="Path_18" data-name="Path 18" class="cls-5" d="M231.989,228.023a6.86,6.86,0,0,0,.563,2.254,7.945,7.945,0,0,1-.113,4.4c-.413,1.5-1.127,3.08-.6,4.545.113.338.3.676.413,1.014.451,1.427-.413,2.93-1.352,4.094l3.719,2.592a4.37,4.37,0,0,0,1.878.9,1.49,1.49,0,0,0,1.653-.977c.038-.225,0-.488.038-.714a1.817,1.817,0,0,1,1.052-1.427,3.686,3.686,0,0,1,1.8-.338c2.291.113,4.207,1.615,6.311,2.592a23.39,23.39,0,0,0,4.245,1.39,3.326,3.326,0,0,0,2.479,0,2.284,2.284,0,0,0,1.014-2.216,6.906,6.906,0,0,0-.789-2.442,6.306,6.306,0,0,1-.714-2.442c0-1.277.676-2.4.939-3.644a8.1,8.1,0,0,0-1.164-5.146,20.242,20.242,0,0,1-2.179-4.883,7.17,7.17,0,0,0-.413-1.54,3.95,3.95,0,0,0-.751-1.014,8.388,8.388,0,0,0-5.334-2.179,23.356,23.356,0,0,0-5.822.526,10.842,10.842,0,0,0-2.179.526,13.973,13.973,0,0,0-2.855,1.54A3.811,3.811,0,0,0,231.989,228.023Z" transform="translate(621.836 139.731)"/>
    <g id="Group_1" data-name="Group 1" class="cls-7" transform="translate(852.736 367.491)">
      <path id="Path_19" data-name="Path 19" d="M291.3,262.845a1.04,1.04,0,0,0,.038.338c.113-1.089.714-2.141.9-3.231a5.455,5.455,0,0,0,.075-1.352,3.746,3.746,0,0,1-.075.6C291.974,260.441,291.26,261.568,291.3,262.845Z" transform="translate(-268.609 -250.11)"/>
      <path id="Path_20" data-name="Path 20" d="M234.56,240.019a6.513,6.513,0,0,0-.263-2.254,13.81,13.81,0,0,1-.563-1.766c0,.075-.038.15-.038.225a6.858,6.858,0,0,0,.563,2.254A4.661,4.661,0,0,1,234.56,240.019Z" transform="translate(-232.644 -236)"/>
      <path id="Path_21" data-name="Path 21" d="M255.091,280.555a2.086,2.086,0,0,1-1.014,1.653,3.326,3.326,0,0,1-2.479,0,24.521,24.521,0,0,1-4.245-1.427c-2.066-.939-4.019-2.442-6.311-2.592a3.768,3.768,0,0,0-1.8.338,2.038,2.038,0,0,0-1.052,1.427c-.038.225,0,.488-.038.714a1.49,1.49,0,0,1-1.653.977,4.37,4.37,0,0,1-1.878-.9l-3.343-2.329a5.521,5.521,0,0,1-.376.488l3.719,2.592a4.37,4.37,0,0,0,1.878.9,1.49,1.49,0,0,0,1.653-.977c.038-.225,0-.488.038-.714a1.817,1.817,0,0,1,1.052-1.427,3.686,3.686,0,0,1,1.8-.338c2.291.113,4.207,1.615,6.311,2.592a26.836,26.836,0,0,0,4.245,1.427,3.326,3.326,0,0,0,2.479,0,2.284,2.284,0,0,0,1.014-2.216Z" transform="translate(-230.9 -262.336)"/>
      <path id="Path_22" data-name="Path 22" d="M233.579,264.954l.113.451a2.174,2.174,0,0,0-.113-1.2c-.113-.338-.3-.676-.413-1.014a6.009,6.009,0,0,1-.188-.789,3.558,3.558,0,0,0,.188,1.54C233.279,264.316,233.467,264.616,233.579,264.954Z" transform="translate(-232.189 -252.483)"/>
    </g>
    <path id="Path_23" data-name="Path 23" class="cls-5" d="M227.91,635.906a.435.435,0,0,1-.188.263.707.707,0,0,1-.3.075c-1.352.038-2.667,0-4.019.075a18.394,18.394,0,0,1-3.794.225,1.907,1.907,0,0,1-1.878-1.24c-.075-.15-.15-.338-.225-.488a7.93,7.93,0,0,1-.526-2.78v-.751a3.129,3.129,0,0,0-.113-.826,1.17,1.17,0,0,1,.038-.939c.526-.977,1.841-1.165,2.817-1.24a23.162,23.162,0,0,1,6.837.488c.188.864.376,1.728.6,2.592.15.639.338,1.24.488,1.878.113.376.225.789.3,1.164A2.563,2.563,0,0,1,227.91,635.906Z" transform="translate(630.648 -113.387)"/>
    <path id="Path_24" data-name="Path 24" class="cls-8" d="M229.105,646.2a.435.435,0,0,1-.188.263.707.707,0,0,1-.3.075c-1.352.038-2.667,0-4.019.075a18.4,18.4,0,0,1-3.794.225,1.907,1.907,0,0,1-1.878-1.24c-.075-.15-.15-.338-.225-.488h.488c1.578,0,3.155-.075,4.733-.075.488,0,.939-.038,1.427-.075s.864-.15,1.277-.188a16.98,16.98,0,0,1,1.953-.075h.526A2.56,2.56,0,0,1,229.105,646.2Z" transform="translate(629.453 -123.683)"/>
    <path id="Path_25" data-name="Path 25" class="cls-5" d="M284.224,620.2a3.732,3.732,0,0,1-1.54,1.089c-2.667,1.127-5.785.639-8.527-.3a15.512,15.512,0,0,0-1.878-.564,13.938,13.938,0,0,0-1.766-.113c-.413,0-.864-.037-1.277-.075-1.089-.075-2.141-.188-3.193-.263a11.3,11.3,0,0,1-2.216-.338,3.913,3.913,0,0,1-.6-.225h0a.863.863,0,0,1-.526-.826c.038-.488.526-.751.977-.939a45.609,45.609,0,0,1,12.246-2.968,5.207,5.207,0,0,0,1.24-.376c.451-.188.526.113.751.451a3.979,3.979,0,0,0,.376.451,4.125,4.125,0,0,0,1.578.9c1.014.376,2.1.488,3.118.826a6.109,6.109,0,0,1,.864.413,1.8,1.8,0,0,1,.714,2.442c-.15.188-.263.3-.338.413Z" transform="translate(601.982 -104.669)"/>
    <path id="Path_26" data-name="Path 26" class="cls-8" d="M295.088,625.355a3.733,3.733,0,0,1-1.54,1.089c-2.667,1.127-5.785.639-8.527-.3a15.513,15.513,0,0,0-1.878-.563,13.928,13.928,0,0,0-1.766-.113c-.413,0-.864-.038-1.277-.075.338-.338.714-.639,1.052-.939a2.914,2.914,0,0,1,.9-.6,2.443,2.443,0,0,1,1.277-.075c2.141.3,4.095,1.8,6.236,1.69a6.933,6.933,0,0,0,2.855-.939,5.115,5.115,0,0,0,1.878-1.352,1.907,1.907,0,0,0,.338-.676,1.8,1.8,0,0,1,.714,2.442,1.12,1.12,0,0,1-.263.413Z" transform="translate(591.118 -109.823)"/>
    <path id="Path_27" data-name="Path 27" class="cls-9" d="M303.49,402.916a3.142,3.142,0,0,1-1.653,1.8c-1.164.338-2.329-.714-2.817-1.841a7.918,7.918,0,0,1-.376-5.184c.225-.864.526-1.69.714-2.592a11.093,11.093,0,0,0,.225-2.216,14.231,14.231,0,0,0-.075-3.343c-.6-3.231-3.381-5.635-4.32-8.79a16.583,16.583,0,0,1-.413-4.921,6.916,6.916,0,0,1,.113-1.24l.113-.338c.6-1.39,2.442-1.578,3.719-2.367.714-.451,2.291-1.841,2.892-.563a8.452,8.452,0,0,1,.3.9,23.212,23.212,0,0,1,.188,3.569c.225,4.095,1.24,8.189.789,12.284a13.212,13.212,0,0,0-.15,2.1c.113,1.766,1.2,3.306,1.728,5A10.874,10.874,0,0,1,303.49,402.916Z" transform="translate(581.964 47.329)"/>
    <path id="Path_28" data-name="Path 28" class="cls-4" d="M302.162,372.364a1.146,1.146,0,0,0-.864,0l-2.554.751a15.216,15.216,0,0,0-2.592.939,6.044,6.044,0,0,0-1.052.639l.113-.338c.6-1.39,2.442-1.578,3.719-2.367.714-.451,2.291-1.841,2.892-.563A2.183,2.183,0,0,1,302.162,372.364Z" transform="translate(581.752 47.267)"/>
    <path id="Path_29" data-name="Path 29" class="cls-5" d="M294.108,318.843a1.078,1.078,0,0,0-1.014-.075l-2.554.751a15.217,15.217,0,0,0-2.592.939,6.955,6.955,0,0,0-1.24.789,16.6,16.6,0,0,1-1.728-6.874c-.113-1.39-.225-2.78-.263-4.132a15.681,15.681,0,0,1,.075-2.968c.15-1.127.451-2.216.676-3.343a16.978,16.978,0,0,0,.225-1.991,18.744,18.744,0,0,0-.188-4.357,26.2,26.2,0,0,0-1.052-4.508c-.225-.676-.526-1.315-.789-1.991l-.075-.225a25.136,25.136,0,0,1-1.164-3.719c-.113-.526-.113-1.052-.526-1.427a5.658,5.658,0,0,1,1.127-.038h.225a8.294,8.294,0,0,1,4.282,1.5,10.3,10.3,0,0,1,3.569,4.7,21.074,21.074,0,0,1,1.014,6.686c.188,4.433.338,8.865.376,13.335a4.3,4.3,0,0,0,.526,2.479,2.942,2.942,0,0,1,.376.563c.188.376.15.789.3,1.164a6.074,6.074,0,0,0,.376.676A2.478,2.478,0,0,1,294.108,318.843Z" transform="translate(589.994 100.486)"/>
    <path id="Path_30" data-name="Path 30" class="cls-9" d="M245.927,255.976c-.376-.113-.751-.263-1.127-.376l.789.075A1.3,1.3,0,0,1,245.927,255.976Z" transform="translate(613.157 119.254)"/>
    <path id="Path_31" data-name="Path 31" class="cls-9" d="M258.261,270.223c-.075.263-.15.526-.225.751a10.589,10.589,0,0,1-.714,1.8,8.145,8.145,0,0,1-1.766,2.592,2.915,2.915,0,0,1-.9.6,2.254,2.254,0,0,1-.864.075c-1.014,0-1.991,0-3.005-.038a12.232,12.232,0,0,1-2.329-.225,8.929,8.929,0,0,1-2.367-1.052A13.949,13.949,0,0,1,240,267.218a1.237,1.237,0,0,1,.075-1.2,1.443,1.443,0,0,1,.939-.338h.038a6.4,6.4,0,0,0,2.291-.789,2.374,2.374,0,0,0,1.052-1.052,2.752,2.752,0,0,0-.038-1.653l-.826-3.794a3.5,3.5,0,0,0-.676-1.69c.225.075.488.15.751.225,2.329.639,4.846.263,7.137,1.089a3.082,3.082,0,0,1,1.991,1.8c.451,1.5-1.014,3.043-.6,4.545a4.014,4.014,0,0,0,2.254,2.1l.639.338,1.728.9.225.113h.038a2.313,2.313,0,0,1,1.315,1.2A1.891,1.891,0,0,1,258.261,270.223Z" transform="translate(616.225 118.567)"/>
    <path id="Path_32" data-name="Path 32" class="cls-4" d="M262.968,293.271a8.621,8.621,0,0,1-.676,2.78,10.994,10.994,0,0,0-1.164,4.883c-.3,5.071-2.216,11.119.563,15.364a1.522,1.522,0,0,1,.188.338,6.958,6.958,0,0,0-1.24.789,16.6,16.6,0,0,1-1.728-6.874c-.113-1.39-.225-2.78-.263-4.132a15.676,15.676,0,0,1,.075-2.968c.15-1.127.451-2.216.676-3.343a16.977,16.977,0,0,0,.225-1.991,18.747,18.747,0,0,0-.188-4.357,26.2,26.2,0,0,0-1.052-4.508c-.225-.676-.526-1.315-.789-1.991l-.075-.225a8.145,8.145,0,0,1-1.766,2.592,2.914,2.914,0,0,1-.9.6,2.254,2.254,0,0,1-.864.075c-1.014,0-1.991,0-3.005-.038a12.227,12.227,0,0,1-2.329-.225,8.928,8.928,0,0,1-2.367-1.052,13.949,13.949,0,0,1-6.085-7.513,1.236,1.236,0,0,1,.075-1.2,1.443,1.443,0,0,1,.939-.338h.038l3.381,4.17a7.656,7.656,0,0,1,.977,1.465.748.748,0,0,0,.3.451,1.335,1.335,0,0,0,.376.075h10.593a2.865,2.865,0,0,0-.451-1.578c-.113.038-.225.038-.038-.038a10.649,10.649,0,0,0-1.164-3.493l-.113-.225a3.893,3.893,0,0,1-.563-1.2,2.315,2.315,0,0,1,1.24,0,2.028,2.028,0,0,1,.9,1.164c.188.376.338.789.488,1.165,0,.038.038.075.038.113a9.372,9.372,0,0,1,.639,2.442c.038.3.113.714.338.789.038,0,.075.038.113.038a1.468,1.468,0,0,1,1.54.376,3.219,3.219,0,0,1,.751,1.465,7.078,7.078,0,0,0,.526,1.578c.488.939-.263,1.352.6,1.916a2.7,2.7,0,0,1,1.014.939A3.452,3.452,0,0,1,262.968,293.271Z" transform="translate(616.1 104.347)"/>
    <path id="Path_33" data-name="Path 33" class="cls-4" d="M226.658,628.86c.188.864.376,1.728.6,2.592l-.038.038a17,17,0,0,0-5.334-1.69,5.858,5.858,0,0,0-4.808,1.578,3.13,3.13,0,0,0-.113-.826,1.17,1.17,0,0,1,.038-.939c.526-.977,1.841-1.164,2.817-1.24A22.051,22.051,0,0,1,226.658,628.86Z" transform="translate(630.586 -113.44)"/>
    <path id="Path_34" data-name="Path 34" class="cls-4" d="M282.1,294.7h0C282.027,294.738,281.877,294.775,282.1,294.7Z" transform="translate(589.942 94.841)"/>
    <path id="Path_35" data-name="Path 35" class="cls-4" d="M278.089,615.205a29.6,29.6,0,0,0-4.7,3.644,4.824,4.824,0,0,1-1.5,1.089,4.177,4.177,0,0,1-1.8.188,63.318,63.318,0,0,1-7.062-.714h0a.863.863,0,0,1-.526-.826c.038-.488.526-.751.977-.939a45.608,45.608,0,0,1,12.246-2.968,5.208,5.208,0,0,0,1.24-.376c.451-.188.526.113.751.451A1.5,1.5,0,0,0,278.089,615.205Z" transform="translate(602.106 -104.669)"/>
    <path id="Path_36" data-name="Path 36" class="cls-10" d="M215.511,280.993c.563.488,1.165.9,1.728,1.352a15.662,15.662,0,0,1,3.381,4.808,3.388,3.388,0,0,1-1.728.113,11.983,11.983,0,0,0,.15,5.034,4.752,4.752,0,0,0-1.69,2.066,15.6,15.6,0,0,0-.563,2.63c-.526,3.907-1.089,7.813-1.615,11.72a1.8,1.8,0,0,1-.376,1.052,2.264,2.264,0,0,0-.3.3,1.961,1.961,0,0,0-.15.789c-.038.263-.188.6-.488.563a.547.547,0,0,1-.338-.225,9.137,9.137,0,0,1-.751-.939c-2.216,4.245-3.268,8.828-4.47,13.486a43.811,43.811,0,0,0-1.728,10.067,41.95,41.95,0,0,0,.3,4.846l.338,3.306c.263,2.667.526,5.3.826,7.964a20.009,20.009,0,0,0,.977,4.958c.9,2.4-.113,5.109.3,7.663.3,1.991.9,4.057.3,5.973-.225.751-.676,1.465-.977,2.216a16.455,16.455,0,0,0-.939,5.9,27.277,27.277,0,0,0,.188,5.259c.338,1.8,1.052,3.569.9,5.372-.188,2.592-2.1,4.808-2.329,7.4-.188,2.066.714,4.057,1.69,5.9.714,1.352-.3,3.08-.676,4.583-.751,2.892.488,5.935,2.028,8.527a.453.453,0,0,0,.188.188c.188.075.338-.113.451-.263a5.86,5.86,0,0,1,5.071-1.878,16.693,16.693,0,0,1,5.334,1.69L222.987,408a5.025,5.025,0,0,0,.639-2.892,7.8,7.8,0,0,0-.939-1.953,11.283,11.283,0,0,1-.789-5l-.038-9.654a21.233,21.233,0,0,0,3.794-8.189,26.246,26.246,0,0,1,.225,12.772,11.22,11.22,0,0,0-.376,1.953c-.15,2.667,1.953,4.958,2.517,7.55a1.626,1.626,0,0,1,.038.6,2.4,2.4,0,0,1-.3.714c-1.014,1.841-.9,4.057-.751,6.123a62.932,62.932,0,0,0,7.964.864,4.237,4.237,0,0,0,1.8-.188,5.3,5.3,0,0,0,1.5-1.089,30.739,30.739,0,0,1,5.6-4.207,13.053,13.053,0,0,0-4.545-4.508c.6-.9,1.991-.826,2.78-1.54a2.515,2.515,0,0,0,.751-1.465,9.908,9.908,0,0,0-.451-4.433,52.922,52.922,0,0,0-2.629-8.377c-.526-1.089-1.014-2.254-1.427-3.381-.977-3.23-.3-6.762-1.052-10.067a7.194,7.194,0,0,1-.376-3.193c.413-1.615,2.254-2.592,2.667-4.207,1.465-5.822,1.728-11.833,2.554-17.73a21.013,21.013,0,0,0,.3-3.418c0-1.2-.225-2.4-.3-3.569-.338-4.771,1.2-9.541.789-14.312a18.094,18.094,0,0,0-2.817-8.264c-2.78-4.282-.826-10.293-.563-15.364a11.525,11.525,0,0,1,1.164-4.883,7.789,7.789,0,0,0,.714-2.78,2.869,2.869,0,0,0-.225-1.766,3.039,3.039,0,0,0-1.014-.939c-.864-.563-.15-.977-.6-1.916a8.639,8.639,0,0,1-.526-1.578,3.043,3.043,0,0,0-.751-1.465,1.468,1.468,0,0,0-1.54-.376c-.376,0-.451-.488-.488-.826a12.124,12.124,0,0,0-1.164-3.756,2.028,2.028,0,0,0-.9-1.164,2.315,2.315,0,0,0-1.24,0,3.228,3.228,0,0,0,.563,1.2,10.742,10.742,0,0,1,1.277,3.681c-.376.113.376,0,0,0a2.494,2.494,0,0,1,.488,1.615H224.752a.677.677,0,0,1-.376-.075.748.748,0,0,1-.3-.451,7.656,7.656,0,0,0-.977-1.465l-3.719-4.583a.887.887,0,0,0-.338-.3.915.915,0,0,0-.451,0A7.725,7.725,0,0,0,215.511,280.993Z" transform="translate(637.112 104.191)"/>
    <path id="Path_37" data-name="Path 37" class="cls-4" d="M260.893,448.5a3.558,3.558,0,0,1,1.841.488,1.844,1.844,0,0,1,.9,1.578,4.308,4.308,0,0,1-.977,1.878,4.414,4.414,0,0,0-.563,1.2.828.828,0,0,0-.038.3.416.416,0,0,0,.338.263,2.819,2.819,0,0,1,1.653,2.479c-.038,1.465-1.465,2.667-1.39,4.132a7.527,7.527,0,0,0,.15.9,6.644,6.644,0,0,1-.526,3.719c-.451,1.164-1.089,2.291-1.578,3.456a24.429,24.429,0,0,0-1.5,10.142,19.6,19.6,0,0,1-1.5,6.8,101.634,101.634,0,0,0,.338-13.523c-.038-1.24-.188-2.367-.15-3.606.075-1.953,1.165-3.719,1.465-5.635a32.366,32.366,0,0,0,.075-3.306c.038-2.254.676-4.47.714-6.724C260.217,451.43,260.067,449.777,260.893,448.5Z" transform="translate(605.103 -1.185)"/>
    <path id="Path_38" data-name="Path 38" class="cls-5" d="M214.679,283.514a9.489,9.489,0,0,0-2.066,1.39,9.673,9.673,0,0,0-1.653,2.254,26.183,26.183,0,0,0-1.39,2.93,6.379,6.379,0,0,0-.6,4.057,15.185,15.185,0,0,0,1.916,3.268,27.459,27.459,0,0,1,1.5,3.569c.676,1.578,1.578,3.08,2.216,4.658a8.348,8.348,0,0,1,.639,5.034c-.113.488-.9.864-.9,1.352,0,.826,1.2,1.728,1.991,1.953a2.985,2.985,0,0,0,2.667-.751,9.755,9.755,0,0,0,2.817-4.357,46.514,46.514,0,0,0,1.991-8.189c.338-2.028.676-4.094.864-6.123a15.131,15.131,0,0,0-.263-5.522,9.624,9.624,0,0,0-2.554-4.282c-.977-.939-2.592-2.216-3.982-2.254A7.261,7.261,0,0,0,214.679,283.514Z" transform="translate(635.615 102.459)"/>
    <path id="Path_39" data-name="Path 39" class="cls-9" d="M213.191,377.473a1.7,1.7,0,0,1-.826,1.24,6.775,6.775,0,0,1-1.427.6,5.8,5.8,0,0,1-3.08.3,6.305,6.305,0,0,1-2.179-1.24l-11.42-8.715a15.649,15.649,0,0,1-2.517-2.216,19.348,19.348,0,0,1-1.2-1.69,7.406,7.406,0,0,1-1.089-2.179,5.072,5.072,0,0,1-.15-1.052,2.192,2.192,0,0,1,.225-.977c.263-.451.864-.563,1.352-.676a14.7,14.7,0,0,1,4.958-.376.742.742,0,0,1,.676.451c.263.451.451.939.714,1.427a9.434,9.434,0,0,0,1.352,2.291,17.166,17.166,0,0,0,1.69,1.615c1.2,1.127,2.179,2.479,3.456,3.531a32.368,32.368,0,0,0,4.958,2.817,9.5,9.5,0,0,1,4.207,3.756A2.054,2.054,0,0,1,213.191,377.473Z" transform="translate(647.809 53.802)"/>
    <path id="Path_40" data-name="Path 40" class="cls-4" d="M256.932,228.616a9.338,9.338,0,1,1-.263-2.179A8.441,8.441,0,0,1,256.932,228.616Z" transform="translate(617.216 141.918)"/>
    <path id="Path_41" data-name="Path 41" class="cls-9" d="M256.932,227.616a9.338,9.338,0,1,1-.263-2.179A8.441,8.441,0,0,1,256.932,227.616Z" transform="translate(617.216 142.542)"/>
    <path id="Path_42" data-name="Path 42" class="cls-4" d="M197.288,362.273a2.252,2.252,0,0,1-1.578.075c-2.1-.451-4.4-.789-6.311.075a2.192,2.192,0,0,1,.225-.977c.263-.451.864-.563,1.352-.676a14.7,14.7,0,0,1,4.958-.376.742.742,0,0,1,.676.451C196.838,361.333,197.063,361.784,197.288,362.273Z" transform="translate(647.747 53.864)"/>
    <path id="Path_43" data-name="Path 43" class="cls-5" d="M192.633,315.549a14.46,14.46,0,0,1-1.728,4.32,3.275,3.275,0,0,0-.676,1.165,4.077,4.077,0,0,1-.15.939c-.113.263-.413.413-.526.676-.15.376.038.864-.15,1.2a1.78,1.78,0,0,1-.376.376,2.539,2.539,0,0,0-.639,1.916,6.338,6.338,0,0,1-.188,2.066c1.991-1.164,4.508-.826,6.762-.338.639.15,1.39.225,1.8-.263s.188-1.165.225-1.766a7.364,7.364,0,0,1,.939-2.179,25.378,25.378,0,0,0,.789-2.554c.6-1.766,1.878-3.193,2.7-4.883a4.518,4.518,0,0,0,.526-1.841,6.025,6.025,0,0,0-.639-2.4,35.626,35.626,0,0,0-2.78-4.958c-.488-.714-1.315-1.991-2.028-.864a22.455,22.455,0,0,0-1.427,3.043A54,54,0,0,0,192.633,315.549Z" transform="translate(648.496 87.966)"/>
    <path id="Path_44" data-name="Path 44" class="cls-5" d="M255.049,248.536a7.6,7.6,0,0,1-6.085-2.4.9.9,0,0,1-.263-.451.693.693,0,0,1,.188-.6c.451-.714,1.24-1.165,1.578-1.916a6.608,6.608,0,0,0,.263-2.442c.075-1.465.639-2.93.676-4.357a5.139,5.139,0,0,0-.075-1.089,6.115,6.115,0,0,1-.3-1.653c.038-1.089,1.052-1.953,1.2-3.043.225-1.39-.939-2.592-2.066-3.381a12.8,12.8,0,0,0-2.855-1.465,7.927,7.927,0,0,0-1.916-.451,7.415,7.415,0,0,0-3.606.413,5.811,5.811,0,0,0-1.352.714,1.837,1.837,0,0,0-.6.6,1.906,1.906,0,0,0-.15.9c-.038,1.54.15,3.155-.563,4.508a23.935,23.935,0,0,0-1.315,2.066,2.854,2.854,0,0,0-.225.977,4.932,4.932,0,0,0-.038,1.052,10.834,10.834,0,0,0,1.014,5.785c.338.526.676,1.052.977,1.615a1.821,1.821,0,0,1-.075,1.8,1.892,1.892,0,0,1-.751.564,6.109,6.109,0,0,1-4.808.188,6.125,6.125,0,0,0,1.427-6.8,4.218,4.218,0,0,1-.526-1.5,3.651,3.651,0,0,1,.376-1.39,7.324,7.324,0,0,0,.225-4.4,17.529,17.529,0,0,1-.714-2.667,7.626,7.626,0,0,1,.075-2.066,6.738,6.738,0,0,1,4.62-5.334c.188-.075.376-.113.6-.188a13.7,13.7,0,0,1,2.78-.3,21.384,21.384,0,0,1,6.2.413,8.268,8.268,0,0,1,3.231,1.653,5.531,5.531,0,0,1,1.54,2.066,9.018,9.018,0,0,1,.451,1.427c.075.413.15.789.225,1.2a27.225,27.225,0,0,1,.413,8.715c-.188,1.127-.526,2.254-.676,3.418C253.734,243.352,254.41,245.982,255.049,248.536Z" transform="translate(619.963 140.367)"/>
    <circle id="Ellipse_7" data-name="Ellipse 7" class="cls-11" cx="0.714" cy="0.714" r="0.714" transform="translate(860.963 391.232)"/>
    <circle id="Ellipse_8" data-name="Ellipse 8" class="cls-11" cx="0.714" cy="0.714" r="0.714" transform="translate(872.758 390.894)"/>
    <path id="Path_45" data-name="Path 45" class="cls-4" d="M252.2,201.606l-1.5-2.817a2.266,2.266,0,0,1,.3-.3,1.275,1.275,0,0,1,.714-.188Z" transform="translate(609.474 155.029)"/>
    <path id="Path_46" data-name="Path 46" class="cls-4" d="M261.267,197.026l-1.69,2.517-.977-2.78a3.164,3.164,0,0,1,1.315-.263A4.227,4.227,0,0,1,261.267,197.026Z" transform="translate(604.541 156.153)"/>
    <g id="Group_2" data-name="Group 2" class="cls-7" transform="translate(853.788 364.836)">
      <path id="Path_47" data-name="Path 47" d="M239.26,282.563a1.892,1.892,0,0,1-.751.563,6.229,6.229,0,0,1-4.282.376,7.208,7.208,0,0,1-.526.563,5.959,5.959,0,0,0,4.808-.188,1.892,1.892,0,0,0,.751-.563,1.621,1.621,0,0,0,.225-1.315A1.272,1.272,0,0,1,239.26,282.563Z" transform="translate(-233.7 -262.066)"/>
      <path id="Path_48" data-name="Path 48" d="M236.414,243.856a10.37,10.37,0,0,1,.225,1.5,7.668,7.668,0,0,0-.225-2.254,17.528,17.528,0,0,1-.714-2.667v.751A23.358,23.358,0,0,0,236.414,243.856Z" transform="translate(-234.949 -235.905)"/>
      <path id="Path_49" data-name="Path 49" d="M288.127,258.105a15.959,15.959,0,0,0,.188-3.005,15.2,15.2,0,0,1-.188,2.254c-.188,1.127-.526,2.254-.676,3.418a10.341,10.341,0,0,0-.075,1.878c0-.376.038-.751.075-1.127C287.6,260.359,287.939,259.27,288.127,258.105Z" transform="translate(-267.203 -245.271)"/>
      <path id="Path_50" data-name="Path 50" d="M236.526,265.464a10.817,10.817,0,0,1-.488-1.164,1.54,1.54,0,0,0-.038.413,4.218,4.218,0,0,0,.526,1.5,5.3,5.3,0,0,1,.451,1.991A4.946,4.946,0,0,0,236.526,265.464Z" transform="translate(-235.136 -251.015)"/>
      <path id="Path_51" data-name="Path 51" d="M279.738,254.578a2.537,2.537,0,0,1,.075.526v-.15a5.14,5.14,0,0,0-.075-1.089c-.075-.376-.225-.789-.3-1.164,0,.075-.038.188-.038.263A8.251,8.251,0,0,0,279.738,254.578Z" transform="translate(-262.233 -243.772)"/>
      <path id="Path_52" data-name="Path 52" d="M273.563,284.288a.659.659,0,0,1-.15-.188,1.157,1.157,0,0,0-.113.488.9.9,0,0,0,.263.451,7.6,7.6,0,0,0,6.085,2.4c-.075-.263-.113-.488-.188-.751A7.635,7.635,0,0,1,273.563,284.288Z" transform="translate(-258.425 -263.377)"/>
      <path id="Path_53" data-name="Path 53" d="M261.83,234.33v-.038c.225-1.39-.939-2.592-2.066-3.381a12.8,12.8,0,0,0-2.855-1.465,7.927,7.927,0,0,0-1.916-.451,7.415,7.415,0,0,0-3.606.413,5.811,5.811,0,0,0-1.352.714,1.837,1.837,0,0,0-.6.6,1.906,1.906,0,0,0-.15.9v.751a2.525,2.525,0,0,1,.15-.9,1.541,1.541,0,0,1,.6-.6,5.811,5.811,0,0,1,1.352-.714,7.834,7.834,0,0,1,3.606-.413,8.855,8.855,0,0,1,1.916.451,13.669,13.669,0,0,1,2.855,1.465A4.522,4.522,0,0,1,261.83,234.33Z" transform="translate(-243.424 -228.933)"/>
      <path id="Path_54" data-name="Path 54" d="M245.152,243.168a23.942,23.942,0,0,0-1.315,2.066,2.854,2.854,0,0,0-.225.977,4.933,4.933,0,0,0-.038,1.052v.751a9.842,9.842,0,0,1,.038-1.052,4.116,4.116,0,0,1,.225-.977,23.94,23.94,0,0,1,1.315-2.066,7.334,7.334,0,0,0,.563-3.719A5.83,5.83,0,0,1,245.152,243.168Z" transform="translate(-239.855 -235.968)"/>
    </g>
    <path id="Path_55" data-name="Path 55" class="cls-4" d="M255.421,225.081a.453.453,0,0,1-.188.188,1.776,1.776,0,0,1-.451.263c-1.089.488-1.052-1.089-1.615-1.615a1.967,1.967,0,0,0-1.277-.376c-1.089-.038-2.216-.113-3.306-.15-1.841-.075-3.681-.113-5.484-.075-.864,0-1.766.038-2.63.113a7.158,7.158,0,0,0-2.968.676,3.132,3.132,0,0,0-.789.6c-.188.225-.413.526-.714.563a6.738,6.738,0,0,1,4.62-5.334,9.307,9.307,0,0,1,12.772,1.578,5.531,5.531,0,0,1,1.54,2.066A9.9,9.9,0,0,1,255.421,225.081Z" transform="translate(618.652 142.673)"/>
    <path id="Path_56" data-name="Path 56" class="cls-12" d="M254.217,211.338c-1.089.488-1.052-1.089-1.615-1.615a1.967,1.967,0,0,0-1.277-.376,96.526,96.526,0,0,0-11.42-.113,5.292,5.292,0,0,0-3.756,1.315c-.225.263-.488.6-.826.563-.113-.751-.188-1.54-.263-2.291a2.235,2.235,0,0,1,.038-.864,6.591,6.591,0,0,1,.413-.9,3.48,3.48,0,0,0,.113-1.24,8.947,8.947,0,0,1,4.4-7.588,3.775,3.775,0,0,0,.9-.6,2.266,2.266,0,0,1,.3-.3,1.275,1.275,0,0,1,.714-.188h.526a4.719,4.719,0,0,0,1.427-.376,3.164,3.164,0,0,1,1.315-.263,4.161,4.161,0,0,1,1.352.488,1.849,1.849,0,0,0,.639.225c.338.075.714.075,1.052.15a5.189,5.189,0,0,1,1.54.676,7.582,7.582,0,0,1,1.578,1.127,7.032,7.032,0,0,1,1.2,1.953,14.684,14.684,0,0,1,1.127,3.118c.3,1.54.15,3.231.864,4.658C255.006,209.835,255.381,210.812,254.217,211.338Z" transform="translate(619.255 156.153)"/>
    <path id="Path_57" data-name="Path 57" class="cls-4" d="M235.4,226.909s7.776-7.1,19.383-1.2C254.783,225.707,241.673,222.74,235.4,226.909Z" transform="translate(619.026 139.38)"/>
    <path id="Path_58" data-name="Path 58" class="cls-13" d="M5.457,269.387c-1.052-1.728-2.667-3.343-2.4-5.3a15.341,15.341,0,0,0,8.339-1.615,71.075,71.075,0,0,0,7.663-4.433c.977-.6,1.953-1.24,2.93-1.8,1.54-.9,3.08-1.878,4.658-2.742a17.4,17.4,0,0,1,7.1-2.442c.451-.038.9-.038,1.39-.038,3.118.075,6.348.9,9.091-.488l.15-.075a25.053,25.053,0,0,0,4.019-3.493,20.136,20.136,0,0,1,3.118-2.179c2.028-1.127,4.207-2.028,6.273-3.08a9.332,9.332,0,0,0,1.5-.977l.338-.3.075-.075c.075-.075.188-.15.263-.225l.15-.15.15-.15.113-.113.225-.188.038-.038.338-.338.15-.15.225-.225.15-.15c.225-.225.451-.488.676-.714s.563-.563.826-.789h0l.263-.225.075-.075.225-.188.113-.075.225-.15.113-.075.338-.225c.113-.075.188-.113.3-.188l-.714-1.69,2.028-.826,27.873,67.653-2.028.826L75.89,263.189l-.113.113a31.952,31.952,0,0,1-13.185,7.851h-.038c-2.78.826-5.9,1.427-8.227,3.005a7.726,7.726,0,0,0-2.1,2.028c-.563.789-.939,1.69-1.5,2.442-.113.15-.225.263-.338.413a13.186,13.186,0,0,1-2.254,1.8l-.338.225a74.1,74.1,0,0,1-7.55,4.658,30.189,30.189,0,0,1-4.7,1.953c-1.164.376-2.4.639-3.569,1.014a12.235,12.235,0,0,0-2.291.939,16.8,16.8,0,0,0-4.958,4.4c-1.277,1.54-2.479,3.155-3.869,4.545-.864.864-2.216,1.69-3.268,1.165l-.225-.113a.287.287,0,0,0,.075-.188c.826-1.728-.188-3.907-1.578-5.3a4.5,4.5,0,0,0-.451-.413c-.15-.113-.413-.376-.639-.563a14.8,14.8,0,0,1-3.231-3.268,9.915,9.915,0,0,1-1.24-3.531,15.584,15.584,0,0,0-1.578-5.109c-.639-.977-1.578-1.841-2.254-2.817a4.153,4.153,0,0,1-.826-1.916c-.15-1.2.413-2.4.639-3.644a4.615,4.615,0,0,0,.075-1.014A5.514,5.514,0,0,0,5.457,269.387Z" transform="translate(764.112 133.114)"/>
    <rect id="Rectangle_4" data-name="Rectangle 4" class="cls-14" width="2.141" height="71.936" transform="translate(827.805 367.939) rotate(-22.403)"/>
    <path id="Path_59" data-name="Path 59" class="cls-15" d="M10.836,286.046a15.232,15.232,0,0,1,1.578,5,9.73,9.73,0,0,0,1.24,3.493,14.3,14.3,0,0,0,3.193,3.193c.225.188.413.376.639.563.15.15.3.263.451.413,1.352,1.352,2.367,3.493,1.54,5.184-.038.075-.038.113-.075.188l.225.113c1.052.488,2.329-.3,3.193-1.164,1.352-1.352,2.554-2.968,3.794-4.47a16.212,16.212,0,0,1,4.883-4.32,11.767,11.767,0,0,1,2.254-.9c1.164-.376,2.329-.639,3.493-1.014a35.238,35.238,0,0,0,4.62-1.916,71.859,71.859,0,0,0,7.438-4.583l.338-.225a12.366,12.366,0,0,0,2.216-1.766,4,4,0,0,0,.338-.413c.563-.751.939-1.615,1.5-2.367a7.592,7.592,0,0,1,2.1-1.991c2.291-1.54,5.334-2.1,8.076-2.93h.038a31.892,31.892,0,0,0,12.96-7.7,2.007,2.007,0,0,0,.639-.939,2.222,2.222,0,0,0-.451-1.5c-.338-.563-.639-1.089-.939-1.653a73.783,73.783,0,0,1-3.719-7.776c-.225-.6-.451-1.165-.676-1.766-.563-1.5-1.089-3.043-1.54-4.583-.15-.526-.3-1.014-.451-1.54-.038-.113-.038-.188-.075-.3-.639-2.517-1.465-8.377-4.019-6.611a16.408,16.408,0,0,0-2.1,1.841c-.488.526-.977,1.014-1.5,1.54-.413.413-.864.789-1.315,1.164a9.085,9.085,0,0,1-1.5.939c-2.028,1.052-4.207,1.916-6.2,3.043a18.857,18.857,0,0,0-3.08,2.141c-1.315,1.164-2.4,2.592-3.944,3.418l-.15.075c-2.7,1.352-5.86.563-8.94.488-.451,0-.9,0-1.352.038a17.616,17.616,0,0,0-6.987,2.4c-1.54.864-3.043,1.841-4.583,2.7-.977.563-1.916,1.164-2.892,1.766a72.11,72.11,0,0,1-7.513,4.357,15.265,15.265,0,0,1-8.227,1.578c-.263,1.916,1.315,3.493,2.367,5.221a5.309,5.309,0,0,1,.864,2.479,4.124,4.124,0,0,1-.075.977,11.852,11.852,0,0,0-.6,3.569,3.863,3.863,0,0,0,.826,1.878C9.3,284.243,10.2,285.07,10.836,286.046Z" transform="translate(762.677 128.1)"/>
    <path id="Path_60" data-name="Path 60" class="cls-9" d="M223.122,381a34.053,34.053,0,0,0,6.611,4.4c3.306,1.54,1.127,7.025,1.127,7.025a6.015,6.015,0,0,1-6.01-2.629C222.371,386.334,223.122,381,223.122,381Z" transform="translate(626.759 40.959)"/>
    <path id="Path_61" data-name="Path 61" class="cls-16" d="M653.4,510.983s-8.715,11.457-15.965,11.57-11.457,4.846-8.039,7.776,40.832-1.69,40.832-1.69.338-14.087-2.892-16.153S653.4,510.983,653.4,510.983Z" transform="translate(373.787 -40.153)"/>
    <path id="Path_62" data-name="Path 62" class="cls-16" d="M938.7,543.08s1.352,9.091-2.78,15.289,7.438,8.565,7.438,8.565,8.414,2.329,9.015-5.973.413-14.65-.376-15.326-1.427-5.334-1.427-5.334Z" transform="translate(182.21 -58.501)"/>
    <path id="Path_63" data-name="Path 63" class="cls-2" d="M593.6,432.378s-.3-29.375,28.774-41.321l6.762-12.847,3.23-7.888a19.255,19.255,0,0,1,13.561-11.457l5.221-1.164,1.615-6.837A19.151,19.151,0,0,1,668.09,336.4a52.174,52.174,0,0,1,9.654-.9,8.289,8.289,0,0,1,7.062,4.132h0s27.535-.3,28.774,14.688c0,0,2.742,13.749,6.724,16.228,0,0,6.724-1.54,13.448,8.264l7.363,25.093s19.271,18.068,13.448,34.559c0,0-7.964,11.307-48.345,3.681,0,0-43.161,13.147-66.113-4.883C640.1,437.262,601.864,444.624,593.6,432.378Z" transform="translate(395.382 69.368)"/>
    <path id="Path_64" data-name="Path 64" class="cls-17" d="M644.9,521.824s6.123-8.565,5.823-14.688S652.15,486.1,652.15,486.1" transform="translate(363.352 -24.66)"/>
    <path id="Path_65" data-name="Path 65" class="cls-17" d="M704.4,473.246s6.123-11.307,5.522-17.43c0,0,6.424-11.645,11.307-10.706" transform="translate(326.203 0.965)"/>
    <path id="Path_66" data-name="Path 66" class="cls-17" d="M794,416.206s16.829-6.123,17.73-11.006" transform="translate(270.261 25.85)"/>
    <path id="Path_67" data-name="Path 67" class="cls-17" d="M810.3,455.2s17.73-7.964,17.73-10.1H836.9s12.847,16.829,11.344,24.191" transform="translate(260.084 0.938)"/>
    <path id="Path_68" data-name="Path 68" class="cls-17" d="M773.17,504.369s-17.129-1.24-23.252,3.681-17.129,7.325-17.129,7.325-6.423,13.786-8.865,16.228-6.424,11.006-6.424,11.006" transform="translate(318.024 -35.98)"/>
    <path id="Path_69" data-name="Path 69" class="cls-17" d="M865.7,547.8s1.841,6.424,4.282,10.1,6.123,16.829,6.123,16.829" transform="translate(225.494 -63.183)"/>
    <path id="Path_70" data-name="Path 70" class="cls-17" d="M942.2,597.5s3.869,10.818,7.287,10.894" transform="translate(177.731 -94.214)"/>
    <path id="Path_71" data-name="Path 71" class="cls-17" d="M874.5,474s10.1,2.742,14.312,9.353S905.9,495.938,905.9,495.938" transform="translate(220 -17.106)"/>
    <path id="Path_72" data-name="Path 72" class="cls-17" d="M886,387.3s0,14.087,3.982,14.087,12.847,1.54,12.847,1.54" transform="translate(212.82 37.026)"/>
    <path id="Path_73" data-name="Path 73" class="cls-17" d="M823.736,342.8s-1.014,24.3-6.236,30.615" transform="translate(255.588 64.81)"/>
    <g id="Group_3" data-name="Group 3" class="cls-18" transform="translate(1008.515 404.567)">
      <path id="Path_74" data-name="Path 74" d="M872.715,403.1l-7.363-25.093c-6.724-9.8-13.448-8.264-13.448-8.264-3.982-2.442-6.724-16.228-6.724-16.228-1.24-14.988-28.774-14.688-28.774-14.688h0a8.337,8.337,0,0,0-7.062-4.132c-1.315,0-2.63.038-3.944.15a20.278,20.278,0,0,1,2.179.338l2.141,3.681s27.535-.3,28.774,14.688c0,0,2.742,13.786,6.724,16.228,0,0,6.724-1.54,13.448,8.264l7.363,25.093S885.3,421.211,879.477,437.7c0,0-3.907,5.6-20.247,6.273,22.013.826,26.971-6.273,26.971-6.273C891.986,421.173,872.715,403.1,872.715,403.1Z" transform="translate(-745.372 -334.7)"/>
      <path id="Path_75" data-name="Path 75" d="M665.209,605.6a142.943,142.943,0,0,1-19.609,2.141,123.449,123.449,0,0,0,20.773-1.24C666,606.2,665.622,605.9,665.209,605.6Z" transform="translate(-645.6 -503.838)"/>
      <path id="Path_76" data-name="Path 76" d="M825.787,618.7a127.613,127.613,0,0,1-28.887,4.583c14.087.526,27.459-2.442,32.981-3.832C828.529,619.188,827.177,618.925,825.787,618.7Z" transform="translate(-740.065 -512.017)"/>
    </g>
    <path id="Path_77" data-name="Path 77" class="cls-2" d="M222.9,738.161s8.414-.263,10.969-2.066,12.96-3.944,13.561-1.052,12.659,14.387,3.155,14.5-22.088-1.465-24.6-3.005S222.9,738.161,222.9,738.161Z" transform="translate(626.831 -179.205)"/>
    <path id="Path_78" data-name="Path 78" class="cls-19" d="M250.673,756.03c-9.5.075-22.088-1.465-24.6-3.005-1.916-1.164-2.7-5.372-2.968-7.325h-.3s.526,6.8,3.08,8.339,15.1,3.08,24.6,3.005c2.742-.038,3.681-1.014,3.644-2.442C253.753,755.5,252.7,756.03,250.673,756.03Z" transform="translate(626.893 -186.743)"/>
    <path id="Path_79" data-name="Path 79" class="cls-2" d="M704.544,673.356s-9.917-1.991-12.547-4.62-14.537-7.25-15.852-3.944-17.843,14.537-6.611,16.528,26.445,2.63,29.751,1.315S704.544,673.356,704.544,673.356Z" transform="translate(350.401 -135.511)"/>
    <path id="Path_80" data-name="Path 80" class="cls-19" d="M669.524,696.062c11.232,1.991,26.445,2.63,29.751,1.315,2.517-1.014,4.245-5.823,4.958-8.076l.338.075s-1.991,7.926-5.3,9.241-18.482.676-29.751-1.315c-3.231-.563-4.17-1.916-3.832-3.606C665.955,694.784,667.082,695.648,669.524,696.062Z" transform="translate(350.411 -151.53)"/>
    <path id="Path_81" data-name="Path 81" class="cls-1" d="M476.479,109.306h-2.367a1.653,1.653,0,1,0,0-3.306h-19.12a1.653,1.653,0,0,0,0,3.306h2.367a1.669,1.669,0,0,0-1.578,1.728,1.639,1.639,0,0,0,1.578,1.578h-3.306a1.653,1.653,0,1,0,0,3.306h19.12a1.653,1.653,0,0,0,0-3.306h3.306a1.655,1.655,0,1,0,.15-3.306Z" transform="translate(483.541 212.658)"/>
    <path id="Path_82" data-name="Path 82" class="cls-1" d="M674.079,264.2h-2.367a1.669,1.669,0,0,0,1.578-1.728,1.639,1.639,0,0,0-1.578-1.578h-19.12a1.655,1.655,0,0,0-.15,3.306h2.517a1.669,1.669,0,0,0-1.578,1.728,1.639,1.639,0,0,0,1.578,1.578h-3.306a1.653,1.653,0,0,0,0,3.306h19.12a1.653,1.653,0,0,0,0-3.306h3.306a1.655,1.655,0,1,0,.15-3.306Z" transform="translate(360.168 115.947)"/>
    <path id="Path_83" data-name="Path 83" class="cls-1" d="M381.279,235.5h-2.367a1.655,1.655,0,1,0,.15-3.306H359.792a1.655,1.655,0,0,0-.15,3.306h2.517a1.655,1.655,0,0,0-.15,3.306h-3.155a1.653,1.653,0,0,0,0,3.306h19.12a1.653,1.653,0,1,0,0-3.306h3.306a1.655,1.655,0,1,0,.15-3.306Z" transform="translate(542.98 133.866)"/>
  </g>
</svg>
